<svg width="183" height="103" viewBox="0 0 183 103" fill="none" xmlns="http://www.w3.org/2000/svg">
<rect width="183" height="66" fill="#FC4208"/>
<path d="M44.6094 21.9531C44.6094 21.0052 44.7865 20.1719 45.1406 19.4531C45.5052 18.724 46.0104 18.1146 46.6562 17.625C47.3021 17.125 48.0677 16.75 48.9531 16.5C49.8385 16.25 50.8125 16.125 51.875 16.125C52.6875 16.125 53.4479 16.1719 54.1562 16.2656C54.8646 16.3594 55.4844 16.4635 56.0156 16.5781C56.6406 16.7031 57.2135 16.8438 57.7344 17L58.0625 19.4844C57.5312 19.2969 56.9479 19.125 56.3125 18.9688C55.7604 18.8438 55.1198 18.7344 54.3906 18.6406C53.6719 18.5365 52.8906 18.4792 52.0469 18.4688C51.3594 18.4688 50.724 18.5417 50.1406 18.6875C49.5677 18.8229 49.0677 19.0417 48.6406 19.3438C48.224 19.6458 47.8958 20.026 47.6562 20.4844C47.4271 20.9427 47.3125 21.4688 47.3125 22.0625C47.3125 22.5833 47.3854 23.0208 47.5312 23.375C47.6875 23.7188 47.9531 24.0365 48.3281 24.3281C48.7135 24.6198 49.224 24.901 49.8594 25.1719C50.4948 25.4323 51.2969 25.7031 52.2656 25.9844C53.4219 26.3698 54.4271 26.724 55.2812 27.0469C56.1354 27.3698 56.8438 27.776 57.4062 28.2656C57.9792 28.7448 58.4062 29.3542 58.6875 30.0938C58.9688 30.8333 59.1094 31.776 59.1094 32.9219C59.1094 33.901 58.9688 34.7917 58.6875 35.5938C58.4062 36.3958 57.9583 37.0781 57.3438 37.6406C56.7292 38.2031 55.9375 38.6354 54.9688 38.9375C54 39.2292 52.8229 39.375 51.4375 39.375C50.4792 39.375 49.625 39.3125 48.875 39.1875C48.1354 39.0625 47.5 38.9219 46.9688 38.7656C46.3542 38.5781 45.8125 38.3698 45.3438 38.1406L44.9375 35.6719C45.4896 35.9323 46.0938 36.1562 46.75 36.3438C47.3125 36.5417 47.9688 36.7031 48.7188 36.8281C49.4792 36.9531 50.2917 37.0156 51.1562 37.0156C51.9375 37.0156 52.6354 36.9583 53.25 36.8438C53.875 36.7292 54.4062 36.526 54.8438 36.2344C55.2812 35.9323 55.6146 35.5365 55.8438 35.0469C56.0833 34.5573 56.2031 33.9479 56.2031 33.2188C56.2031 32.5 56.125 31.9115 55.9688 31.4531C55.8125 30.9948 55.5312 30.5885 55.125 30.2344C54.7188 29.8698 54.1615 29.5469 53.4531 29.2656C52.7552 28.9844 51.8594 28.6667 50.7656 28.3125C49.6719 27.9896 48.7344 27.6458 47.9531 27.2812C47.1823 26.9167 46.5469 26.4896 46.0469 26C45.5469 25.5 45.1823 24.9219 44.9531 24.2656C44.724 23.599 44.6094 22.8281 44.6094 21.9531ZM79.6719 17.375L70.6094 26.8125L80.4844 38.2656V39H77.4844L68.5938 28.5L66.375 30.7188V39H63.4844V16.5469H66.375V27.4375L76.7812 16.5469H79.6719V17.375ZM86.0469 33.8906L84.5 39H81.4531L88.8906 16.5469H92.0312L99.4531 39H96.3906L94.8594 33.8906H86.0469ZM86.5625 32.1406H94.3281L90.4688 19.5781L86.5625 32.1406ZM108.531 18.7969V39H105.609V18.7969H99.1719V16.5469H115.016L114.641 18.7969H108.531ZM118.516 39V16.5469H131.266L130.891 18.8125H121.469V26.3594H129.156V28.5312H121.469V36.7344H131.234L130.875 39H118.516Z" fill="white"/>
<rect y="66" width="183" height="37" fill="#171616"/>
<path d="M43.8945 84L41.707 74.791L41.0723 71.6758L40.457 74.8008L38.2695 84H35.5742L32.7715 69.9668H34.6562L36.6484 80.8262L37 82.7891L37.3711 80.8555L39.7539 70.5625H42.4102L44.8027 80.8652L45.1836 82.7891L45.5352 80.8262L47.5078 69.9668H49.3535L46.5898 84H43.8945ZM52.9473 80.8066L51.9805 84H50.0762L54.7246 69.9668H56.6875L61.3262 84H59.4121L58.4551 80.8066H52.9473ZM53.2695 79.7129H58.123L55.7109 71.8613L53.2695 79.7129ZM73.0938 84H71.3262L67.3223 78.1406H65.3691V84H63.5332V69.9668H67.7324C68.5072 69.9668 69.1973 70.0221 69.8027 70.1328C70.4147 70.237 70.929 70.4388 71.3457 70.7383C71.7689 71.0312 72.0911 71.4349 72.3125 71.9492C72.5339 72.4635 72.6445 73.1341 72.6445 73.9609C72.6445 74.7161 72.5404 75.3379 72.332 75.8262C72.1302 76.3145 71.8633 76.7083 71.5312 77.0078C71.2057 77.3008 70.8346 77.5221 70.418 77.6719C70.0013 77.8151 69.5781 77.9128 69.1484 77.9648L73.0938 83.4434V84ZM65.3691 76.7734H67.5566C68.2077 76.7734 68.748 76.7311 69.1777 76.6465C69.6139 76.5553 69.9622 76.4056 70.2227 76.1973C70.4896 75.9889 70.6784 75.7188 70.7891 75.3867C70.8997 75.0482 70.9551 74.6283 70.9551 74.127C70.9551 73.5215 70.8965 73.0365 70.7793 72.6719C70.6621 72.3073 70.4603 72.0273 70.1738 71.832C69.8939 71.6302 69.513 71.4935 69.0312 71.4219C68.556 71.3503 67.9603 71.3145 67.2441 71.3145H65.3691V76.7734ZM75.584 84V69.9668H83.5527L83.3184 71.3828H77.4297V76.0996H82.2344V77.457H77.4297V82.584H83.5332L83.3086 84H75.584ZM94.8613 77.3887H88.0352V84H86.2285V69.9668H88.0352V76.0215H94.8613V69.9668H96.668V84H94.8613V77.3887ZM101.521 76.9492C101.521 77.8672 101.59 78.6875 101.727 79.4102C101.87 80.1263 102.094 80.735 102.4 81.2363C102.706 81.7311 103.097 82.1087 103.572 82.3691C104.048 82.6296 104.624 82.7598 105.301 82.7598C105.984 82.7598 106.564 82.6296 107.039 82.3691C107.521 82.1087 107.915 81.7311 108.221 81.2363C108.527 80.735 108.748 80.1263 108.885 79.4102C109.028 78.6875 109.1 77.8672 109.1 76.9492C109.1 76.0378 109.028 75.224 108.885 74.5078C108.748 73.7917 108.527 73.1862 108.221 72.6914C107.915 72.1966 107.521 71.819 107.039 71.5586C106.564 71.2982 105.984 71.168 105.301 71.168C104.63 71.168 104.054 71.2982 103.572 71.5586C103.097 71.819 102.706 72.1966 102.4 72.6914C102.101 73.1862 101.88 73.7917 101.736 74.5078C101.593 75.224 101.521 76.0378 101.521 76.9492ZM99.6562 76.9492C99.6562 74.5013 100.138 72.6816 101.102 71.4902C102.065 70.2988 103.465 69.7031 105.301 69.7031C107.15 69.7031 108.556 70.2988 109.52 71.4902C110.49 72.6816 110.975 74.5013 110.975 76.9492C110.975 79.4232 110.49 81.2559 109.52 82.4473C108.556 83.6387 107.15 84.2344 105.301 84.2344C104.383 84.2344 103.572 84.0879 102.869 83.7949C102.166 83.4954 101.577 83.0462 101.102 82.4473C100.626 81.8418 100.265 81.0833 100.018 80.1719C99.7767 79.2604 99.6562 78.1862 99.6562 76.9492ZM119.188 82.7598C119.76 82.7598 120.262 82.6979 120.691 82.5742C121.121 82.4505 121.479 82.2487 121.766 81.9688C122.052 81.6888 122.267 81.3047 122.41 80.8164C122.56 80.3281 122.635 79.7194 122.635 78.9902V69.9668H124.49V79.1172C124.49 80.1263 124.357 80.9596 124.09 81.6172C123.829 82.2747 123.462 82.7988 122.986 83.1895C122.518 83.5736 121.958 83.8438 121.307 84C120.662 84.1562 119.959 84.2344 119.197 84.2344C118.41 84.2344 117.687 84.1562 117.029 84C116.372 83.8372 115.805 83.5605 115.33 83.1699C114.861 82.7728 114.497 82.2454 114.236 81.5879C113.976 80.9303 113.846 80.1035 113.846 79.1074V69.9668H115.711V78.9902C115.711 79.7194 115.776 80.3281 115.906 80.8164C116.043 81.3047 116.251 81.6888 116.531 81.9688C116.818 82.2487 117.179 82.4505 117.615 82.5742C118.058 82.6979 118.582 82.7598 119.188 82.7598ZM127.186 73.3457C127.186 72.7533 127.296 72.2324 127.518 71.7832C127.745 71.3275 128.061 70.9466 128.465 70.6406C128.868 70.3281 129.347 70.0938 129.9 69.9375C130.454 69.7812 131.062 69.7031 131.727 69.7031C132.234 69.7031 132.71 69.7324 133.152 69.791C133.595 69.8496 133.982 69.9147 134.314 69.9863C134.705 70.0645 135.063 70.1523 135.389 70.25L135.594 71.8027C135.262 71.6855 134.897 71.5781 134.5 71.4805C134.155 71.4023 133.755 71.334 133.299 71.2754C132.85 71.2103 132.361 71.1745 131.834 71.168C131.404 71.168 131.007 71.2135 130.643 71.3047C130.285 71.3893 129.972 71.526 129.705 71.7148C129.445 71.9036 129.24 72.1413 129.09 72.4277C128.947 72.7142 128.875 73.043 128.875 73.4141C128.875 73.7396 128.921 74.013 129.012 74.2344C129.109 74.4492 129.275 74.6478 129.51 74.8301C129.751 75.0124 130.07 75.1882 130.467 75.3574C130.864 75.5202 131.365 75.6895 131.971 75.8652C132.693 76.1061 133.322 76.3275 133.855 76.5293C134.389 76.7311 134.832 76.985 135.184 77.291C135.542 77.5905 135.809 77.9714 135.984 78.4336C136.16 78.8958 136.248 79.485 136.248 80.2012C136.248 80.8132 136.16 81.3698 135.984 81.8711C135.809 82.3724 135.529 82.7988 135.145 83.1504C134.76 83.502 134.266 83.7721 133.66 83.9609C133.055 84.1432 132.319 84.2344 131.453 84.2344C130.854 84.2344 130.32 84.1953 129.852 84.1172C129.389 84.0391 128.992 83.9512 128.66 83.8535C128.276 83.7363 127.938 83.6061 127.645 83.4629L127.391 81.9199C127.736 82.0827 128.113 82.2227 128.523 82.3398C128.875 82.4635 129.285 82.5645 129.754 82.6426C130.229 82.7207 130.737 82.7598 131.277 82.7598C131.766 82.7598 132.202 82.724 132.586 82.6523C132.977 82.5807 133.309 82.4538 133.582 82.2715C133.855 82.0827 134.064 81.8353 134.207 81.5293C134.357 81.2233 134.432 80.8424 134.432 80.3867C134.432 79.9375 134.383 79.5697 134.285 79.2832C134.188 78.9967 134.012 78.7428 133.758 78.5215C133.504 78.2936 133.156 78.0918 132.713 77.916C132.277 77.7402 131.717 77.5417 131.033 77.3203C130.35 77.1185 129.764 76.9036 129.275 76.6758C128.794 76.4479 128.396 76.181 128.084 75.875C127.771 75.5625 127.544 75.2012 127.4 74.791C127.257 74.3743 127.186 73.8926 127.186 73.3457ZM138.982 84V69.9668H146.951L146.717 71.3828H140.828V76.0996H145.633V77.457H140.828V82.584H146.932L146.707 84H138.982Z" fill="white"/>
</svg>
