<svg width="183" height="45" viewBox="0 0 183 45" fill="none" xmlns="http://www.w3.org/2000/svg">
<rect width="183" height="45" fill="#1C1A1A"/>
<path d="M36.084 23L33.6777 12.8701L32.9795 9.44336L32.3027 12.8809L29.8965 23H26.9316L23.8486 7.56348H25.9219L28.1133 19.5088L28.5 21.668L28.9082 19.541L31.5293 8.21875H34.4512L37.083 19.5518L37.502 21.668L37.8887 19.5088L40.0586 7.56348H42.0889L39.0488 23H36.084ZM46.042 19.4873L44.9785 23H42.8838L47.9971 7.56348H50.1562L55.2588 23H53.1533L52.1006 19.4873H46.042ZM46.3965 18.2842H51.7354L49.082 9.64746L46.3965 18.2842ZM68.2031 23H66.2588L61.8545 16.5547H59.7061V23H57.6865V7.56348H62.3057C63.1579 7.56348 63.917 7.62435 64.583 7.74609C65.2562 7.86068 65.8219 8.08268 66.2803 8.41211C66.7458 8.73438 67.1003 9.17839 67.3438 9.74414C67.5872 10.3099 67.709 11.0475 67.709 11.957C67.709 12.7878 67.5944 13.4717 67.3652 14.0088C67.1432 14.5459 66.8496 14.9792 66.4844 15.3086C66.1263 15.6309 65.7181 15.8743 65.2598 16.0391C64.8014 16.1966 64.3359 16.304 63.8633 16.3613L68.2031 22.3877V23ZM59.7061 15.0508H62.1123C62.8285 15.0508 63.4229 15.0042 63.8955 14.9111C64.3753 14.8109 64.7585 14.6462 65.0449 14.417C65.3385 14.1878 65.5462 13.8906 65.668 13.5254C65.7897 13.153 65.8506 12.6911 65.8506 12.1396C65.8506 11.4736 65.7861 10.9401 65.6572 10.5391C65.5283 10.138 65.3063 9.83008 64.9912 9.61523C64.6833 9.39323 64.2643 9.24284 63.7344 9.16406C63.2116 9.08529 62.5563 9.0459 61.7686 9.0459H59.7061V15.0508ZM70.9424 23V7.56348H79.708L79.4502 9.12109H72.9727V14.3096H78.2578V15.8027H72.9727V21.4424H79.6865L79.4395 23H70.9424ZM92.1475 15.7275H84.6387V23H82.6514V7.56348H84.6387V14.2236H92.1475V7.56348H94.1348V23H92.1475V15.7275ZM99.4736 15.2441C99.4736 16.2539 99.5488 17.1562 99.6992 17.9512C99.8568 18.7389 100.104 19.4085 100.44 19.96C100.777 20.5042 101.207 20.9196 101.729 21.2061C102.252 21.4925 102.886 21.6357 103.631 21.6357C104.383 21.6357 105.02 21.4925 105.543 21.2061C106.073 20.9196 106.506 20.5042 106.843 19.96C107.179 19.4085 107.423 18.7389 107.573 17.9512C107.731 17.1562 107.81 16.2539 107.81 15.2441C107.81 14.2415 107.731 13.3464 107.573 12.5586C107.423 11.7708 107.179 11.1048 106.843 10.5605C106.506 10.0163 106.073 9.60091 105.543 9.31445C105.02 9.02799 104.383 8.88477 103.631 8.88477C102.893 8.88477 102.259 9.02799 101.729 9.31445C101.207 9.60091 100.777 10.0163 100.44 10.5605C100.111 11.1048 99.8675 11.7708 99.71 12.5586C99.5524 13.3464 99.4736 14.2415 99.4736 15.2441ZM97.4219 15.2441C97.4219 12.5514 97.9518 10.5498 99.0117 9.23926C100.072 7.92871 101.611 7.27344 103.631 7.27344C105.665 7.27344 107.212 7.92871 108.271 9.23926C109.339 10.5498 109.872 12.5514 109.872 15.2441C109.872 17.9655 109.339 19.9814 108.271 21.292C107.212 22.6025 105.665 23.2578 103.631 23.2578C102.621 23.2578 101.729 23.0967 100.956 22.7744C100.183 22.445 99.5345 21.9508 99.0117 21.292C98.4889 20.626 98.0915 19.7917 97.8193 18.7891C97.5544 17.7865 97.4219 16.6048 97.4219 15.2441ZM118.906 21.6357C119.536 21.6357 120.088 21.5677 120.561 21.4316C121.033 21.2956 121.427 21.0736 121.742 20.7656C122.057 20.4577 122.294 20.0352 122.451 19.498C122.616 18.9609 122.698 18.2913 122.698 17.4893V7.56348H124.739V17.6289C124.739 18.7389 124.592 19.6556 124.299 20.3789C124.012 21.1022 123.608 21.6787 123.085 22.1084C122.569 22.5309 121.953 22.8281 121.237 23C120.528 23.1719 119.755 23.2578 118.917 23.2578C118.05 23.2578 117.256 23.1719 116.532 23C115.809 22.821 115.186 22.5166 114.663 22.0869C114.147 21.6501 113.746 21.07 113.46 20.3467C113.174 19.6234 113.03 18.7139 113.03 17.6182V7.56348H115.082V17.4893C115.082 18.2913 115.154 18.9609 115.297 19.498C115.447 20.0352 115.676 20.4577 115.984 20.7656C116.299 21.0736 116.697 21.2956 117.177 21.4316C117.664 21.5677 118.24 21.6357 118.906 21.6357ZM127.704 11.2803C127.704 10.6286 127.826 10.0557 128.069 9.56152C128.32 9.06022 128.667 8.64128 129.111 8.30469C129.555 7.96094 130.082 7.70312 130.69 7.53125C131.299 7.35938 131.969 7.27344 132.699 7.27344C133.258 7.27344 133.781 7.30566 134.268 7.37012C134.755 7.43457 135.181 7.50618 135.546 7.58496C135.976 7.6709 136.369 7.76758 136.728 7.875L136.953 9.58301C136.588 9.4541 136.187 9.33594 135.75 9.22852C135.37 9.14258 134.93 9.06738 134.429 9.00293C133.935 8.93132 133.397 8.89193 132.817 8.88477C132.345 8.88477 131.908 8.9349 131.507 9.03516C131.113 9.12826 130.769 9.27865 130.476 9.48633C130.189 9.69401 129.964 9.9554 129.799 10.2705C129.641 10.5856 129.562 10.9473 129.562 11.3555C129.562 11.7135 129.613 12.0143 129.713 12.2578C129.82 12.4941 130.003 12.7126 130.261 12.9131C130.526 13.1136 130.877 13.307 131.313 13.4932C131.75 13.6722 132.302 13.8584 132.968 14.0518C133.763 14.3167 134.454 14.5602 135.041 14.7822C135.628 15.0042 136.115 15.2835 136.502 15.6201C136.896 15.9495 137.189 16.3685 137.383 16.877C137.576 17.3854 137.673 18.0335 137.673 18.8213C137.673 19.4945 137.576 20.1068 137.383 20.6582C137.189 21.2096 136.882 21.6787 136.459 22.0654C136.036 22.4521 135.492 22.7493 134.826 22.957C134.16 23.1576 133.351 23.2578 132.398 23.2578C131.74 23.2578 131.152 23.2148 130.637 23.1289C130.128 23.043 129.691 22.9463 129.326 22.8389C128.904 22.71 128.531 22.5667 128.209 22.4092L127.93 20.7119C128.309 20.891 128.725 21.0449 129.176 21.1738C129.562 21.3099 130.014 21.4209 130.529 21.5068C131.052 21.5928 131.611 21.6357 132.205 21.6357C132.742 21.6357 133.222 21.5964 133.645 21.5176C134.074 21.4388 134.439 21.2992 134.74 21.0986C135.041 20.891 135.27 20.6188 135.428 20.2822C135.592 19.9456 135.675 19.5267 135.675 19.0254C135.675 18.5312 135.621 18.1266 135.514 17.8115C135.406 17.4964 135.213 17.2171 134.934 16.9736C134.654 16.723 134.271 16.501 133.784 16.3076C133.304 16.1143 132.688 15.8958 131.937 15.6523C131.185 15.4303 130.54 15.194 130.003 14.9434C129.473 14.6927 129.036 14.3991 128.692 14.0625C128.349 13.7188 128.098 13.3213 127.94 12.8701C127.783 12.4118 127.704 11.8818 127.704 11.2803ZM140.681 23V7.56348H149.446L149.188 9.12109H142.711V14.3096H147.996V15.8027H142.711V21.4424H149.425L149.178 23H140.681Z" fill="white"/>
</svg>
